<?xml version="1.0" standalone="no"?><!DOCTYPE svg PUBLIC "-//W3C//DTD SVG 1.1//EN" "http://www.w3.org/Graphics/SVG/1.1/DTD/svg11.dtd"><svg t="1765781712402" class="icon" viewBox="0 0 1024 1024" version="1.1" xmlns="http://www.w3.org/2000/svg" p-id="14137" xmlns:xlink="http://www.w3.org/1999/xlink" width="300" height="300"><path d="M517.0688 986.7776c-179.8144 0-373.76-37.632-373.76-120.1664 0-57.9584 92.672-88.0128 169.2672-102.8096a23.7056 23.7056 0 1 1 8.9088 46.5408c-99.0208 18.6368-131.9936 46.08-131.9936 55.8592 0 21.6064 110.848 72.7552 325.7856 72.7552s325.7856-50.7904 325.7856-72.7552c0-10.24-34.7136-38.0928-137.1136-57.1392a23.7056 23.7056 0 0 1-19.0464-27.4944 24.1152 24.1152 0 0 1 27.4944-19.0464c80.384 14.7968 176.0256 44.4416 176.0256 103.68 1.6896 82.944-191.6928 120.576-371.5072 120.576z" fill="#090909" p-id="14138"></path><path d="M517.0688 909.7728a29.5936 29.5936 0 0 1-24.5248-12.6976l-209.4592-308.48a327.68 327.68 0 1 1 467.5584 0l-209.4592 308.48a29.6448 29.6448 0 0 1-24.1152 12.6976z m0-819.6096a268.6976 268.6976 0 0 0-190.4128 459.1104l3.3792 4.2496 186.5728 274.5856 186.624-274.5856 3.3792-4.2496a268.6976 268.6976 0 0 0-189.44-459.1104z" fill="#090909" p-id="14139"></path><path d="M517.0688 485.3248a154.0096 154.0096 0 1 1 154.0096-154.0096 154.0096 154.0096 0 0 1-154.0096 154.0096z m0-249.2416a95.1808 95.1808 0 1 0 95.1808 95.1808 95.1808 95.1808 0 0 0-95.1808-95.3856z" fill="#090909" p-id="14140"></path></svg>