<?xml version="1.0" standalone="no"?><!DOCTYPE svg PUBLIC "-//W3C//DTD SVG 1.1//EN" "http://www.w3.org/Graphics/SVG/1.1/DTD/svg11.dtd"><svg t="1765763374692" class="icon" viewBox="0 0 1024 1024" version="1.1" xmlns="http://www.w3.org/2000/svg" p-id="15985" xmlns:xlink="http://www.w3.org/1999/xlink" width="300" height="300"><path d="M512 0c-35.4 0-64 28.6-64 64v35.8C303 122.8 192 248.4 192 400v66.8c0 90.8-31 179-87.6 249.8L74.6 754c-11.6 14.4-13.8 34.2-5.8 50.8S93.6 832 112 832h800c18.4 0 35.2-10.6 43.2-27.2s5.8-36.4-5.8-50.8l-29.8-37.2c-56.6-71-87.6-159.2-87.6-250V400c0-151.6-111-277.2-256-300.2V64c0-35.4-28.6-64-64-64z m0 192h16c114.8 0 208 93.2 208 208v66.8c0 95.8 27.8 189.2 79.4 269.2H208.6c51.6-80 79.4-173.4 79.4-269.2V400c0-114.8 93.2-208 208-208h16z m128 704H384c0 34 13.4 66.6 37.4 90.6S478 1024 512 1024s66.6-13.4 90.6-37.4S640 930 640 896z" p-id="15986"></path></svg>