<?xml version="1.0" standalone="no"?><!DOCTYPE svg PUBLIC "-//W3C//DTD SVG 1.1//EN" "http://www.w3.org/Graphics/SVG/1.1/DTD/svg11.dtd"><svg t="1765851728635" class="icon" viewBox="0 0 1024 1024" version="1.1" xmlns="http://www.w3.org/2000/svg" p-id="17915" xmlns:xlink="http://www.w3.org/1999/xlink" width="300" height="300"><path d="M877.738667 658.285714l51.321904 52.102096-198.948571 195.974095L609.52381 787.382857l51.370666-52.077714 69.266286 68.339809L877.738667 658.285714zM268.190476 146.285714h48.761905v73.118476L268.190476 219.428571v609.52381h314.051048l74.118095 73.142857H268.190476a73.142857 73.142857 0 0 1-73.142857-73.142857V219.428571a73.142857 73.142857 0 0 1 73.142857-73.142857z m487.619048 0a73.142857 73.142857 0 0 1 73.142857 73.142857l-0.024381 418.450286-73.142857 72.070095L755.809524 219.428571h-48.761905V146.285714h48.761905z m-219.428572 414.476191v73.142857h-195.047619v-73.142857h195.047619z m146.285715-146.285715v73.142858H341.333333v-73.142858h341.333334zM585.142857 73.142857a73.142857 73.142857 0 0 1 73.142857 73.142857v48.761905a73.142857 73.142857 0 0 1-73.142857 73.142857h-146.285714a73.142857 73.142857 0 0 1-73.142857-73.142857V146.285714a73.142857 73.142857 0 0 1 73.142857-73.142857h146.285714z m0 73.142857h-146.285714v48.761905h146.285714V146.285714z" p-id="17916"></path></svg>