<?xml version="1.0" standalone="no"?><!DOCTYPE svg PUBLIC "-//W3C//DTD SVG 1.1//EN" "http://www.w3.org/Graphics/SVG/1.1/DTD/svg11.dtd"><svg t="1765784165512" class="icon" viewBox="0 0 1024 1024" version="1.1" xmlns="http://www.w3.org/2000/svg" p-id="2378" xmlns:xlink="http://www.w3.org/1999/xlink" width="300" height="300"><path d="M512 85.333333c235.648 0 426.666667 191.018667 426.666667 426.666667s-191.018667 426.666667-426.666667 426.666667S85.333333 747.648 85.333333 512 276.352 85.333333 512 85.333333z m0 85.333334a341.333333 341.333333 0 1 0 0 682.666666 341.333333 341.333333 0 0 0 0-682.666666z m83.541333 301.184a42.666667 42.666667 0 0 1 1.792 12.245333v241.322667a42.666667 42.666667 0 0 1-42.666666 42.666666h-42.666667a42.666667 42.666667 0 0 1-42.666667-42.666666v-135.936a42.666667 42.666667 0 0 0-31.232-41.088L384 533.333333v-42.666666l158.421333-47.445334a42.666667 42.666667 0 0 1 53.12 28.586667zM512 256a64 64 0 1 1 0 128 64 64 0 0 1 0-128z" fill="#333333" p-id="2379"></path></svg>