<?xml version="1.0" standalone="no"?><!DOCTYPE svg PUBLIC "-//W3C//DTD SVG 1.1//EN" "http://www.w3.org/Graphics/SVG/1.1/DTD/svg11.dtd"><svg t="1765778593434" class="icon" viewBox="0 0 1024 1024" version="1.1" xmlns="http://www.w3.org/2000/svg" p-id="8429" xmlns:xlink="http://www.w3.org/1999/xlink" width="300" height="300"><path d="M454.81 590.85V424.92c0-8.8 1.68-17.27 5.05-25.4s8.16-15.31 14.39-21.53c6.22-6.23 13.4-11.02 21.53-14.39 8.13-3.37 16.6-5.05 25.4-5.05h199.11c8.8 0 17.27 1.68 25.4 5.05 8.13 3.37 15.31 8.16 21.53 14.39 6.22 6.22 11.02 13.4 14.39 21.53s5.05 16.6 5.05 25.4v165.93H454.81z" fill="#00C050" p-id="8430"></path><path d="M428.37 653.19c-18.57 0-34.15-14.48-35.27-33.26-1.16-19.49 13.71-36.24 33.2-37.39l330.37-19.64c0.03 0 0.07 0 0.11-0.01 23.94-1.35 53.71-22.91 63.52-45.69l65.64-243.56c0.33-1.24 0.73-2.45 1.2-3.65 2.72-6.98 2.6-12.06 1.27-14.01-1.2-1.76-5.47-3.53-12.3-3.53H382c-19.53 0-35.36-15.83-35.36-35.36s15.83-35.36 35.36-35.36h494.12c30 0 55.77 12.52 70.68 34.36 14.73 21.56 17.24 49.75 6.98 77.63l-65.76 244a33.85 33.85 0 0 1-1.2 3.65c-9.26 23.75-27.2 46.23-50.51 63.32-23.4 17.15-50.21 27.39-75.5 28.82L430.5 653.14c-0.71 0.03-1.42 0.05-2.13 0.05z m378.2 141.69H382.25c-43.57 0-82.53-33.73-88.8-76.82l-86.83-566.57c-0.02-0.12-0.04-0.24-0.05-0.36-1.2-8.38-10.33-16.3-18.79-16.3H99.36C79.83 134.83 64 118.99 64 99.47s15.83-35.36 35.36-35.36h88.41c43.56 0 82.52 33.73 88.78 76.83l86.83 566.57c0.02 0.12 0.03 0.23 0.05 0.35 1.2 8.38 10.34 16.31 18.82 16.31h424.32c19.53 0 35.36 15.83 35.36 35.36 0 19.52-15.83 35.35-35.36 35.35z m-70.72 47.15c32.55 0 58.93 26.38 58.93 58.93s-26.38 58.93-58.93 58.93-58.93-26.38-58.93-58.93 26.38-58.93 58.93-58.93z m-306.45 0c32.55 0 58.93 26.38 58.93 58.93s-26.38 58.93-58.93 58.93-58.93-26.38-58.93-58.93c-0.01-32.55 26.38-58.93 58.93-58.93z" fill="#333333" p-id="8431"></path></svg>