<?xml version="1.0" standalone="no"?><!DOCTYPE svg PUBLIC "-//W3C//DTD SVG 1.1//EN" "http://www.w3.org/Graphics/SVG/1.1/DTD/svg11.dtd"><svg t="1765848598438" class="icon" viewBox="0 0 1024 1024" version="1.1" xmlns="http://www.w3.org/2000/svg" p-id="2513" xmlns:xlink="http://www.w3.org/1999/xlink" width="300" height="300"><path d="M910.23 652.19v133.59c0 27.48-22.29 49.78-49.78 49.78H163.56c-27.49 0-49.77-22.29-49.77-49.78V652.19c57.87-20.58 99.55-75.27 99.55-140.19 0-64.93-41.69-119.62-99.55-140.19V238.23c0-27.49 22.28-49.78 49.77-49.78h696.89c27.49 0 49.78 22.28 49.78 49.78v133.59c-57.87 20.57-99.56 75.26-99.56 140.19-0.01 64.92 41.68 119.61 99.56 140.18z m24.88-239.75c24.21-16.07 24.89-28.37 24.89-49.77V213.34c0-41.23-33.43-74.66-74.66-74.66H138.67C97.43 138.67 64 172.1 64 213.34v149.33c0 22.31 1.55 37.18 24.89 49.77 34.01 15.84 74.67 47.83 74.67 99.56 0 67.13-42.2 88.97-73.2 99.44C68.54 625.1 64 647.59 64 661.33v149.33c0 41.24 33.43 74.66 74.67 74.66h746.67c41.23 0 74.66-33.42 74.66-74.66V661.33c0-27.19-6.24-35.8-24.89-49.78-54.36-28.02-74.66-52.98-74.66-99.55 0-46.58 19.01-69.76 74.66-99.56z" fill="#00C050" p-id="2514"></path><path d="M648.94 462.24h-94l102.04-109.55c4.41-4.82 4.41-12.63 0-17.45l-15.97-17.46c-4.41-4.82-11.56-4.82-15.97 0L511.88 439.26l-113.2-121.52c-4.38-4.79-11.47-4.79-15.84 0l-15.85 17.32c-4.38 4.79-4.38 12.54 0 17.31l102.34 109.87h-94.27c-6.88 0-12.45 5.57-12.45 12.44v24.88c0 6.87 5.57 12.44 12.45 12.44H487.1v49.76H375.06c-6.88 0-12.45 5.57-12.45 12.44v24.88c0 6.87 5.57 12.44 12.45 12.44H487.1v87.08c0 6.86 5.57 12.44 12.45 12.44h24.89c6.88 0 12.45-5.58 12.45-12.44v-87.08h112.04c6.88 0 12.45-5.57 12.45-12.44v-24.87c0-6.87-5.57-12.44-12.45-12.44H536.9V512h112.04c6.88 0 12.45-5.57 12.45-12.44v-24.88c0-6.87-5.57-12.44-12.45-12.44z" fill="#333333" p-id="2515"></path></svg>