<?xml version="1.0" standalone="no"?><!DOCTYPE svg PUBLIC "-//W3C//DTD SVG 1.1//EN" "http://www.w3.org/Graphics/SVG/1.1/DTD/svg11.dtd"><svg t="1765848608896" class="icon" viewBox="0 0 1024 1024" version="1.1" xmlns="http://www.w3.org/2000/svg" p-id="3364" xmlns:xlink="http://www.w3.org/1999/xlink" width="300" height="300"><path d="M315.63 176.77l-0.03 0.04c0.01-0.01 0.02-0.02 0.03-0.04z m-182.5 235.78L512 830.59l378.87-418.04-176.81-228.43H309.94L133.13 412.55zM512 903.1a44.599 44.599 0 0 1-32.96-14.6L75.48 443.22c-14.44-15.88-15.37-39.85-2.2-56.8l192.18-248.28a44.76 44.76 0 0 1 35.15-17.23h422.78c13.74 0.04 26.7 6.4 35.15 17.23l192.19 248.29c13.15 16.96 12.22 40.92-2.21 56.8L544.97 888.49A44.65 44.65 0 0 1 512 903.1z" fill="#00C050" p-id="3365"></path><path d="M712.22 391.74c-13.08-11.58-33.06-10.41-44.71 2.61l-7.46 8.36C639.39 425.5 553.72 520 511.25 566.68c-49.61-54.6-99.21-109.28-148.78-163.96l-7.49-8.37c-11.58-13.07-31.56-14.28-44.63-2.7-13.07 11.58-14.28 31.56-2.7 44.63l3.26 3.65-0.04 0.04 4.7 5.19c29.11 32.56 128.85 144.02 163.15 180.25a44.553 44.553 0 0 0 32.27 13.88h0.49a44.536 44.536 0 0 0 32.27-13.88c34.3-36.25 134.04-147.69 163.15-180.25l4.71-5.19-0.04-0.04 3.26-3.65a31.48 31.48 0 0 0-2.61-44.54z" fill="#333333" p-id="3366"></path></svg>