<?xml version="1.0" standalone="no"?><!DOCTYPE svg PUBLIC "-//W3C//DTD SVG 1.1//EN" "http://www.w3.org/Graphics/SVG/1.1/DTD/svg11.dtd"><svg t="1765848624368" class="icon" viewBox="0 0 1024 1024" version="1.1" xmlns="http://www.w3.org/2000/svg" p-id="4731" xmlns:xlink="http://www.w3.org/1999/xlink" width="300" height="300"><path d="M631.46 512c16.51 0 29.86-13.38 29.86-29.89 0-16.51-13.34-29.86-29.86-29.86h-77.18l98.37-98.37c11.68-11.68 11.68-30.62 0-42.3-11.65-11.65-30.59-11.65-42.27 0l-98.32 98.35-98.32-98.35c-11.68-11.65-30.62-11.65-42.3 0-11.65 11.68-11.65 30.62 0 42.3l98.39 98.37h-77.31c-16.51 0-29.86 13.34-29.86 29.86 0 16.51 13.34 29.89 29.86 29.89h89.6v59.71h-89.6c-16.51 0-29.86 13.34-29.86 29.89 0 16.51 13.34 29.86 29.86 29.86h89.6v59.74c0 16.51 13.38 29.86 29.89 29.86s29.86-13.34 29.86-29.86v-59.74h89.6c16.51 0 29.86-13.35 29.86-29.86 0-16.54-13.34-29.89-29.86-29.89h-89.6V512h89.59z" fill="#333333" p-id="4732"></path><path d="M772.13 789.47c-11.68-11.68-30.62-11.68-42.3 0-11.65 11.65-11.65 30.59 0 42.27l68.51 68.51H512c-214.11 0-388.29-174.18-388.29-388.26 0-214.11 174.18-388.29 388.29-388.29S900.26 297.89 900.26 512c0 68.32-17.92 135.42-51.9 194.11-8.19 14.27-3.36 32.58 10.94 40.8 14.27 8.29 32.48 3.36 40.77-10.91C939.26 668.22 960 590.75 960 512c0-247.07-200.96-448-448-448C264.93 64 64 264.93 64 512c0 247.04 200.93 448 448 448h358.4c12.03 0 22.94-7.3 27.62-18.5s2.14-24-6.43-32.58L772.13 789.47z" fill="#00C050" p-id="4733"></path></svg>