<?xml version="1.0" standalone="no"?><!DOCTYPE svg PUBLIC "-//W3C//DTD SVG 1.1//EN" "http://www.w3.org/Graphics/SVG/1.1/DTD/svg11.dtd"><svg t="1765851130382" class="icon" viewBox="0 0 1024 1024" version="1.1" xmlns="http://www.w3.org/2000/svg" p-id="2276" width="300" height="300" xmlns:xlink="http://www.w3.org/1999/xlink"><path d="M770 357.7c-4.1-43.7-74.3-101.3-112-100.4-91 2.2-101.5 43.8-154.1 88.6-25.4-22-50.8-35.2-75.4-39.1-26.1-4.1-51.6 2.1-75.9 18.3-32.4 21.2-52.5 57-56.6 100.7-5.1 55.7 16.6 113.8 58.2 155.2 50.3 50.2 98.4 85.6 141.2 117.6 42.6 31.8 45.4 34.7 47.4 34.7s-13.8-2.9-11-4.3l12-1.1c44.8-29.7 81.9-53.4 133-103.6 20.8-20.7 36.9-29.4 47-57.2 9.6-26.6 52.5-64 50-90.7L770 357.7z" fill="#25B195" p-id="2277"></path><path d="M809.3 408.7c-5.9-58-34.4-105.4-80.7-133.4-69.2-41.1-142.5-31.8-217.8 27.6-36.5-29.2-72.8-46.7-108-51.9-37.4-5.5-74 2.7-108.7 24.3-46.4 28.1-75.2 75.6-81.1 133.7-7.4 74 23.8 151 83.4 206 72.1 66.6 138.3 117.7 202.3 156.1 4.5 3.8 9 3.8 11.9 3.8 2.9 0 6.7 0 10.6-1.9l0.7-0.4c64.3-39.5 131.1-91 204.3-157.6 29.8-27.4 53-61.3 67.4-98.2 13.8-35.4 19.3-72.8 15.7-108.1zM698.9 587c-64.7 58.6-128.1 107.7-188.1 146.1-58.3-36.6-119.9-84.4-188-146.1-25.4-23.9-45.2-53-57.5-84.4-11.6-29.8-16.1-61-13.1-90.4 4.6-45.3 26.6-82.2 62-103.8 56.9-35.1 116.7-24.2 182.8 33.6 3.5 3.4 8.9 5.6 13.7 5.6 4.1 0 9.3-1.8 13.9-4.8l0.4-0.3 0.4-0.4c66.2-57.8 126-68.8 183-33.7 35.4 22 57.3 59.5 61.6 105.7 5.9 62.1-20.8 126.7-71.1 172.9z m0 0" fill="#595857" p-id="2278"></path></svg>