<?xml version="1.0" standalone="no"?><!DOCTYPE svg PUBLIC "-//W3C//DTD SVG 1.1//EN" "http://www.w3.org/Graphics/SVG/1.1/DTD/svg11.dtd"><svg t="1765848620800" class="icon" viewBox="0 0 1024 1024" version="1.1" xmlns="http://www.w3.org/2000/svg" p-id="4389" xmlns:xlink="http://www.w3.org/1999/xlink" width="300" height="300"><path d="M886.471 241.419h-94v-68.56c0.05-60.01-48.52-108.72-108.53-108.86h-343.94c-59.99 0.18-108.53 48.86-108.53 108.86v68.56h-94.01c-40.54 0.18-73.31 33.09-73.31 73.63 0 107.74 71.96 174.51 170.23 203.4 18.34 126.36 119.4 224.56 246.23 239.28v139.1h-146.38c-17.43-0.89-32.28 12.53-33.17 29.96-0.89 17.43 12.53 32.28 29.96 33.17 1.07 0.05 2.14 0.05 3.21 0h355.47c17.43 0.89 32.28-12.53 33.17-29.96s-12.53-32.28-29.96-33.17c-1.07-0.05-2.14-0.05-3.21 0h-146.38v-139.1c126.85-14.67 227.94-112.9 246.23-239.28 98.27-28.92 170.31-95.7 170.31-203.4 0-40.54-32.77-73.45-73.31-73.63h-0.08z m-763.28 73.63c0.25-7.78 6.59-13.99 14.38-14.07h93.89v153.64c-63.59-27.25-108.27-66.04-108.27-139.57z m388.81 385.26c-122.31-0.63-221.14-99.91-221.22-222.22v-305.23c0-27.24 21.97-49.39 49.22-49.6h343.95c27.36 0.04 49.52 22.24 49.52 49.6v305.24c-0.09 122.28-98.9 221.55-221.18 222.2l-0.29 0.01z m280.47-245.67v-153.66h93.99c7.86 0.15 14.17 6.52 14.25 14.38 0 73.31-44.8 111.99-108.31 139.26l0.07 0.02z m-118.87 20.14c-15.23-5.73-32.22 1.97-37.96 17.2-0.01 0.04-0.03 0.07-0.04 0.11a134.409 134.409 0 0 1-80.98 78.95c-15.44 5.41-23.57 22.32-18.15 37.76a29.63 29.63 0 0 0 27.79 19.82c3.25 0.01 6.48-0.52 9.55-1.59a191.532 191.532 0 0 0 116.98-114.3c5.66-15.25-2.03-32.21-17.23-38l0.04 0.05z" fill="#00C050" p-id="4390"></path><path d="M516.871 202.159l-2.04 2.36a143.216 143.216 0 0 1-29.63 23.7 160.814 160.814 0 0 1-34.84 14.25l-5.6 1.43v56.79l9.41-2.69a158.102 158.102 0 0 0 48.34-22.66v195.36h56.24v-268.54h-41.88z" fill="#333333" p-id="4391"></path></svg>