<?xml version="1.0" standalone="no"?><!DOCTYPE svg PUBLIC "-//W3C//DTD SVG 1.1//EN" "http://www.w3.org/Graphics/SVG/1.1/DTD/svg11.dtd"><svg t="1765848618977" class="icon" viewBox="0 0 1024 1024" version="1.1" xmlns="http://www.w3.org/2000/svg" p-id="4216" xmlns:xlink="http://www.w3.org/1999/xlink" width="300" height="300"><path d="M219.23 287.61l571.84-26.03h63.09l-50.72-108.32c-17.44-43.63-66.08-66.59-112.67-53.2L164.75 261.58l54.48 26.03z" fill="#333333" p-id="4217"></path><path d="M828.24 255.74c72.77 0 131.76 57.86 131.76 129.23v94.75l-185.5 0.02c-61.19 0-111.25 47.71-113.11 107.12l-0.06 3.87c0 60 48.64 109.1 109.23 110.91l3.94 0.06H960v96.8c0 71.36-58.99 129.23-131.76 129.23H195.76C122.99 927.74 64 869.89 64 798.51V384.97c0-71.36 58.99-129.23 131.76-129.23h632.48z" fill="#00C050" p-id="4218"></path><path d="M768 591.74m-64 0a64 64 0 1 0 128 0 64 64 0 1 0-128 0Z" fill="#333333" p-id="4219"></path></svg>