<?xml version="1.0" standalone="no"?><!DOCTYPE svg PUBLIC "-//W3C//DTD SVG 1.1//EN" "http://www.w3.org/Graphics/SVG/1.1/DTD/svg11.dtd"><svg t="1765848615052" class="icon" viewBox="0 0 1024 1024" version="1.1" xmlns="http://www.w3.org/2000/svg" p-id="3876" xmlns:xlink="http://www.w3.org/1999/xlink" width="300" height="300"><path d="M959.36 535.12c-4.23-28.39-16-54.77-34.89-80.93l-6.7-9.18c-7.64-10.4-15.69-21.16-24.94-33.34l-38.05-49.75c-9.4-12.21-17.99-23.21-26.35-33.77l-9.96-12.51c-13.76-17.21-32.75-25.36-56.24-25.28l-150.5 0.13c-0.13-19.4-0.23-37.69-0.32-54.87l-0.25-86.31c-0.02-1.42-0.07-2.52-0.13-3.79-0.46-9.71-4.02-19.04-10.2-26.71-10.68-13.34-25.18-18.88-44.06-18.8l-437.9 0.06c-2.96 0-5.96 0.13-9.33 0.37-23.75 1.61-43.01 20.35-44.82 43.64-0.28 3.41-0.45 6.82-0.45 10.32l-0.2 572.31-0.07 35.34c-0.16 32.86 21.63 54.97 53.55 54.97l9.3-0.22 49.64-0.32 1.4-7.49c9.6-51.97 55.79-89.93 110.44-89.8 54.44 0.24 100.49 38.27 110.04 89.87l1.38 7.49 217.25 0.42-0.51-47.51c20.35-33.44 57.16-55.31 98.21-54.92 55.78 0.54 102.32 40.44 111.49 94.47l1.35 7.92 75.41 0.08c7.67 0.03 12.38-0.25 17.48-1.37 24.23-5.22 39.47-25.26 39.47-51.17V546.58l0.1-2.63c0.02-2.79-0.2-5.86-0.64-8.83z m-304.48 19.94V410.17l64.6 0.07 19.58-0.23v0.02l2.22 0.03c5.3 0.19 10.18 2.93 13.1 7.36l26.75 36.88 22.33 30.97c7.14 9.97 14.04 19.62 20.75 29.06l19.75 27.91c1.78 2.63 3.26 5.44 4.43 8.39l1.81 4.41H654.88z" fill="#00C050" p-id="3877"></path><path d="M286.91 751.19c-22.01-0.12-43.15 8.93-58.74 25.13-15.59 16.2-24.32 38.22-24.28 61.17-0.07 22.94 8.63 44.96 24.18 61.2 15.54 16.23 36.65 25.34 58.65 25.31 45.83 0 83.02-38.84 82.89-86.64-0.09-47.58-37.07-86.11-82.7-86.17z m434.52 0c-45.71-0.45-83.26 38.2-83.51 85.98-0.25 47.73 36.74 86.5 82.7 86.83 45.52 0.26 82.58-37.94 83.02-85.71 0.56-47.85-36.06-86.64-82.21-87.1z" fill="#333333" p-id="3878"></path></svg>