<?xml version="1.0" standalone="no"?><!DOCTYPE svg PUBLIC "-//W3C//DTD SVG 1.1//EN" "http://www.w3.org/Graphics/SVG/1.1/DTD/svg11.dtd"><svg t="1765848574592" class="icon" viewBox="0 0 1024 1024" version="1.1" xmlns="http://www.w3.org/2000/svg" p-id="1135" xmlns:xlink="http://www.w3.org/1999/xlink" width="300" height="300"><path d="M960 808.89v51.15c0 38.13-28.88 57.84-64.47 44.32L685.1 808.89H960z" fill="#333333" p-id="1136"></path><path d="M288.17 391.18h447.66c28.64 0 51.87-22.97 51.87-51.71 0-28.55-22.99-51.72-51.87-51.72H288.17c-28.55 0-51.69 23.15-51.69 51.72 0 28.56 23.14 51.71 51.69 51.71zM425.7 598.03h310.43c28.47 0 51.56-22.96 51.56-51.71 0-28.55-23.44-51.72-51.56-51.72H425.7c-28.46 0-51.55 22.96-51.55 51.72 0 28.54 23.43 51.71 51.55 51.71zM132.82 115.38h758.36c38.03 0.06 68.82 30.91 68.82 68.95v609.08H678.48l-0.14-0.05H132.68c-37.92-0.06-68.64-30.81-68.68-68.75V184.12c0-37.85 30.8-68.74 68.82-68.74z" fill="#00C050" p-id="1137"></path></svg>