<?xml version="1.0" standalone="no"?><!DOCTYPE svg PUBLIC "-//W3C//DTD SVG 1.1//EN" "http://www.w3.org/Graphics/SVG/1.1/DTD/svg11.dtd"><svg t="1765848603377" class="icon" viewBox="0 0 1024 1024" version="1.1" xmlns="http://www.w3.org/2000/svg" p-id="2854" xmlns:xlink="http://www.w3.org/1999/xlink" width="300" height="300"><path d="M512 64c25.25 0 48.13 14.84 58.43 37.89l100.61 225.17 233.34 30.84c24.23 3.2 44.52 19.93 52.29 43.1a63.996 63.996 0 0 1-15.74 65.91L767.42 638.04l44.87 246.5c4.47 24.54-5.73 49.45-26.14 63.8A63.994 63.994 0 0 1 749.32 960c-11.04 0-22.11-2.85-32.06-8.61L512 832.57 306.74 951.39a63.928 63.928 0 0 1-32.06 8.61 63.92 63.92 0 0 1-36.83-11.66c-20.41-14.36-30.61-39.26-26.14-63.8l44.87-246.5L83.06 466.92c-17.4-17.16-23.51-42.74-15.74-65.91 7.77-23.17 28.06-39.9 52.29-43.1l233.34-30.84L453.56 101.9C463.87 78.84 486.75 64 512 64z m0 64L396.8 385.82 128 421.35l197.6 194.87L274.67 896 512 758.62 749.33 896 698.4 616.22 896 421.35l-268.8-35.53L512 128" fill="#00C050" p-id="2855"></path><path d="M512 352l48 107.43 112 14.8-82.33 81.2L610.89 672 512 614.76 413.11 672l21.22-116.57-82.33-81.2 112-14.8z" fill="#333333" p-id="2856"></path></svg>