<?xml version="1.0" standalone="no"?><!DOCTYPE svg PUBLIC "-//W3C//DTD SVG 1.1//EN" "http://www.w3.org/Graphics/SVG/1.1/DTD/svg11.dtd"><svg t="1765848606955" class="icon" viewBox="0 0 1024 1024" version="1.1" xmlns="http://www.w3.org/2000/svg" p-id="3194" xmlns:xlink="http://www.w3.org/1999/xlink" width="300" height="300"><path d="M830.4 858.02c-27.16 29.18-62.19 45.93-96.09 45.93H289.7c-33.9 0-68.93-16.75-96.09-45.93-40.7-43.74-60.21-110.05-54.93-186.73 10.81-157.32 180.9-275.71 232.79-308.26a44.36 44.36 0 0 0 6.64-5.18h267.47c0.1 0 0.19-0.03 0.29-0.03 2.06 1.94 4.3 3.69 6.7 5.21 51.87 32.54 221.94 150.93 232.78 308.25 5.26 76.68-14.25 142.98-54.95 186.75v-0.01zM330.91 166.87c6.79-9.03 17.03-19.9 27.18-20.42 7.92-0.4 18.26 5.66 28.43 16.69a44.288 44.288 0 0 0 35.41 14.21 44.264 44.264 0 0 0 33.31-18.6 121.06 121.06 0 0 1 28.17-28.96 54.702 54.702 0 0 1 28.6-9.77c10.28 0.5 20.21 3.89 28.65 9.78 10.93 8 20.44 17.79 28.14 28.94a44.264 44.264 0 0 0 33.31 18.6c13.34 0.86 26.36-4.36 35.41-14.2 10.17-11.01 20.41-17.13 28.43-16.69 10.15 0.51 20.39 11.38 27.18 20.42 31.58 41.97-22.9 102.34-47.79 126.36a44.439 44.439 0 0 0-6.89 8.57H385.6a44.87 44.87 0 0 0-6.9-8.57c-24.89-24.01-79.37-84.4-47.79-126.36z m610.17 500.56c-11.66-169.54-167.75-292.44-246.73-344.12 66.71-69.21 82.61-138 43.34-190.2-20.32-27-43.53-41.34-69-42.63-21.6-1.11-42.99 7.52-62.56 25.03-5.65-7-11.82-13.56-18.45-19.64a27.58 27.58 0 0 0-4.42-4.42c-3.62-2.84-7.36-5.52-11.21-8.03a108.383 108.383 0 0 0-45.83-18.54c-1.66-0.24-3.31-0.29-4.98-0.44-1.08-0.11-2.17-0.22-3.25-0.29-3.98-0.19-7.96-0.19-11.94 0.01-1.14 0.07-2.27 0.19-3.4 0.3-1.64 0.16-3.27 0.2-4.91 0.43a108.254 108.254 0 0 0-45.76 18.49c-3.77 2.47-7.53 5.15-11.27 8.06-1.64 1.3-3.12 2.79-4.43 4.43a181.052 181.052 0 0 0-18.44 19.63c-19.57-17.51-41-26.09-62.56-25.03-25.45 1.29-48.66 15.63-68.97 42.62-39.27 52.19-23.37 121.01 43.34 190.21-78.99 51.73-235.07 174.59-246.73 344.13-6.35 92.35 18.45 173.61 69.83 228.82C190.45 936.76 240.37 960 289.7 960h444.6c49.34 0 99.25-23.23 136.97-63.74 51.36-55.21 76.16-136.48 69.81-228.83z" fill="#00C050" p-id="3195"></path><path d="M636.73 652.34h-94.57v-39.95h94.57c15.89 0 28.77-12.88 28.77-28.77s-12.88-28.77-28.77-28.77h-62.14l79.59-80.02c11.18-11.26 11.18-29.42 0-40.68-5.35-5.39-12.63-8.43-20.23-8.43s-14.88 3.03-20.23 8.43L511.94 536.5 410.11 434.14a28.507 28.507 0 0 0-20.23-8.43c-7.6 0-14.88 3.03-20.23 8.43-11.17 11.26-11.17 29.42 0 40.68l79.6 80.02h-58.88c-15.89 0-28.77 12.88-28.77 28.77s12.88 28.77 28.77 28.77h94.6v39.95h-94.6c-15.89 0-28.77 12.88-28.77 28.77 0 15.89 12.88 28.77 28.77 28.77h94.6v99.88c0 15.8 12.81 28.61 28.61 28.61 15.8 0 28.61-12.81 28.61-28.61v-99.87h94.57c15.89 0 28.77-12.89 28.76-28.78-0.01-15.9-12.9-28.78-28.79-28.76z" fill="#333333" p-id="3196"></path></svg>