<?xml version="1.0" standalone="no"?><!DOCTYPE svg PUBLIC "-//W3C//DTD SVG 1.1//EN" "http://www.w3.org/Graphics/SVG/1.1/DTD/svg11.dtd"><svg t="1765848611253" class="icon" viewBox="0 0 1024 1024" version="1.1" xmlns="http://www.w3.org/2000/svg" p-id="3534" xmlns:xlink="http://www.w3.org/1999/xlink" width="300" height="300"><path d="M594.63 265.8v478.49l84.74 45.05V233.12z" fill="#333333" p-id="3535"></path><path d="M883.25 333.35h-75.83V103.9c0-21.19-17.18-38.37-38.36-38.37h-0.19a38.45 38.45 0 0 0-15.73 3.45L317.85 284.96H140.72c-42.37 0-76.72 34.37-76.72 76.77V654.4c0 35.98 24.74 66.16 58.12 74.48v139.23c0 49.9 40.46 90.34 90.37 90.34h14.58c49.91 0 90.37-40.45 90.37-90.34V731.17h0.41l435.29 223.84c11.88 5.42 25.69 4.43 36.67-2.64s17.62-19.22 17.61-32.28V693.95h75.83c42.39 0 76.75-34.35 76.75-76.72V410.08c0-42.38-34.36-76.73-76.75-76.73z m-750.2 28.38c0-4.24 3.43-7.68 7.67-7.68h176.85v308.03H140.72c-4.24 0-7.67-3.44-7.67-7.68V361.73z m115.51 506.39c0 11.76-9.54 21.29-21.3 21.29h-14.58c-11.76 0-21.3-9.53-21.3-21.29V731.17h57.18v136.95z m489.62 1.51l-351.4-180.74V327.81l351.39-174.4v716.22z m152.75-252.4c0 4.24-3.44 7.67-7.68 7.67h-74.83V402.4h74.83c4.24 0 7.68 3.44 7.68 7.67v207.16z" fill="#00C050" p-id="3536"></path></svg>