<?xml version="1.0" standalone="no"?><!DOCTYPE svg PUBLIC "-//W3C//DTD SVG 1.1//EN" "http://www.w3.org/Graphics/SVG/1.1/DTD/svg11.dtd"><svg t="1765848587171" class="icon" viewBox="0 0 1024 1024" version="1.1" xmlns="http://www.w3.org/2000/svg" p-id="1652" xmlns:xlink="http://www.w3.org/1999/xlink" width="300" height="300"><path d="M412.44 727.7h199.11c36.66 0 66.37 29.72 66.37 66.37V960H346.07V794.07c0-36.65 29.72-66.37 66.37-66.37z" fill="#00C050" p-id="1653"></path><path d="M771.98 861.61c0 18.11-14.68 32.8-32.8 32.8H284.82c-18.11 0-32.8-14.68-32.8-32.8V701.34c0.12-114.07 92.56-206.5 206.63-206.63h106.7c114.07 0.12 206.5 92.56 206.62 206.63l0.01 160.27zM516.59 130.88c76.2 0 137.97 61.77 137.97 137.97s-61.77 137.97-137.97 137.97c-76.2 0-137.97-61.77-137.97-137.97-0.18-36.72 14.28-72.01 40.16-98.06s61.08-40.73 97.81-40.78v0.87z m112.83 306.11c74.43-49.58 107.79-141.93 82.22-227.62-25.57-85.7-104.08-144.67-193.51-145.36-89.43-0.68-168.83 57.08-195.71 142.38-26.88 85.3 5.06 178.15 78.72 228.86-125.11 27.38-214.39 138.02-214.71 266.1v160.27c0.12 54.29 44.1 98.27 98.39 98.39h454.36c54.29-0.12 98.27-44.1 98.39-98.39V701.34c-0.34-125.5-86.24-234.58-208.15-264.35z" fill="#333333" p-id="1654"></path></svg>