<?xml version="1.0" standalone="no"?><!DOCTYPE svg PUBLIC "-//W3C//DTD SVG 1.1//EN" "http://www.w3.org/Graphics/SVG/1.1/DTD/svg11.dtd"><svg t="1765848626343" class="icon" viewBox="0 0 1024 1024" version="1.1" xmlns="http://www.w3.org/2000/svg" p-id="4901" xmlns:xlink="http://www.w3.org/1999/xlink" width="300" height="300"><path d="M512 885.07c-205.69 0-373.07-167.38-373.07-373.07S306.31 138.93 512 138.93 885.07 306.31 885.07 512 717.69 885.07 512 885.07zM512 64C264.99 64 64 264.99 64 512s200.99 448 448 448 448-200.99 448-448S759.01 64 512 64z" fill="#00C050" p-id="4902"></path><path d="M594.09 542.11c-8.8 8.6-12.81 21.01-10.8 33.11L596 649.45l-66.73-35.02c-5.4-2.9-11.4-4.3-17.41-4.3s-12.01 1.4-17.41 4.3l-66.73 35.02 12.71-74.23c2.1-12.11-2-24.51-10.8-33.11l-54.02-52.63 74.53-10.8c12.21-1.8 22.71-9.4 28.21-20.51l33.32-67.53 33.31 67.53c5.4 11.11 16.01 18.71 28.21 20.51l74.53 10.8-53.63 52.63z m139.86-115.85l-130.16-18.91-58.22-117.95a37.435 37.435 0 0 0-33.62-20.91c-14.31 0-27.31 8.1-33.62 20.91L420.1 407.35l-130.16 18.91c-14.11 2-25.81 11.9-30.21 25.51-4.4 13.61-0.7 28.41 9.5 38.42l94.24 91.84-22.21 129.66c-2.4 14.01 3.4 28.21 14.91 36.62 11.61 8.4 26.81 9.5 39.42 2.8l116.35-61.13 116.45 61.23c5.5 2.9 11.5 4.3 17.41 4.3 7.8 0 15.51-2.4 22.01-7.1 11.5-8.41 17.31-22.61 14.91-36.62l-22.21-129.76 94.24-91.84c10.21-9.9 13.91-24.81 9.5-38.42-4.39-13.5-16.19-23.41-30.3-25.51z" fill="#333333" p-id="4903"></path></svg>