<?xml version="1.0" standalone="no"?><!DOCTYPE svg PUBLIC "-//W3C//DTD SVG 1.1//EN" "http://www.w3.org/Graphics/SVG/1.1/DTD/svg11.dtd"><svg t="1765848622772" class="icon" viewBox="0 0 1024 1024" version="1.1" xmlns="http://www.w3.org/2000/svg" p-id="4561" xmlns:xlink="http://www.w3.org/1999/xlink" width="300" height="300"><path d="M959.95 902.18c0 15.94-16.76 28.93-36.41 28.93H99.84c-19.44 0.22-35.44-12.7-35.84-28.93 0-15.98 16.19-28.98 35.84-28.98h823.75c19.65 0 36.41 13.04 36.41 28.93" fill="#333333" p-id="4562"></path><path d="M192.61 758.46h81.4V164.18h-81.4v594.28zM311.44 92.94c20.2 0 37.43 16.06 37.43 35.62v665.52c0 19.62-17.23 35.62-37.43 35.62H155.18c-19.97 0.24-36.41-15.65-36.85-35.62V128.56c0-19.67 16.64-35.67 36.85-35.67h156.27l-0.01 0.05z m159.88 665.52h81.4V413.84h-81.4v344.62z m118.84-415.97c20.2 0 36.85 16.06 36.85 35.62v415.96c-0.44 19.97-16.87 35.86-36.85 35.62H433.84c-19.95 0.21-36.36-15.67-36.79-35.62v-415.9c0-19.67 16.64-35.67 36.79-35.67l156.32-0.01zM749.4 758.41h81.99V288.96H749.4v469.45z m118.84-540.69c20.79 0 37.43 16.06 37.43 35.62v540.69c0 19.67-16.64 35.73-37.43 35.73H712.56c-19.99 0.24-36.44-15.69-36.85-35.67v-540.7c0-19.67 16.64-35.67 36.85-35.67h155.68z" fill="#00C050" p-id="4563"></path></svg>