<?xml version="1.0" standalone="no"?><!DOCTYPE svg PUBLIC "-//W3C//DTD SVG 1.1//EN" "http://www.w3.org/Graphics/SVG/1.1/DTD/svg11.dtd"><svg t="1765850569833" class="icon" viewBox="0 0 1024 1024" version="1.1" xmlns="http://www.w3.org/2000/svg" p-id="16009" xmlns:xlink="http://www.w3.org/1999/xlink" width="300" height="300"><path d="M480 257a8 8 0 0 0-8 8v257.886c0 4.221 1.668 8.272 4.642 11.269L667.47 726.493a8 8 0 0 0 11.314 0.045l45.432-45.076a8 8 0 0 0 0.045-11.314L552 496.524V265a8 8 0 0 0-8-8h-64z" fill="#323338" p-id="16010"></path><path d="M961 512.5C961 760.2 760.2 961 512.5 961S64 760.2 64 512.5 264.8 64 512.5 64 961 264.8 961 512.5z m-80 0C881 308.983 716.017 144 512.5 144S144 308.983 144 512.5 308.983 881 512.5 881 881 716.017 881 512.5z" fill="#323338" p-id="16011"></path></svg>