<?xml version="1.0" standalone="no"?><!DOCTYPE svg PUBLIC "-//W3C//DTD SVG 1.1//EN" "http://www.w3.org/Graphics/SVG/1.1/DTD/svg11.dtd"><svg t="1765848581346" class="icon" viewBox="0 0 1024 1024" version="1.1" xmlns="http://www.w3.org/2000/svg" p-id="1307" xmlns:xlink="http://www.w3.org/1999/xlink" width="300" height="300"><path d="M828.24 143.06H195.76c-12.73 0-23.64 9.09-25.93 21.61l-0.42 4.74v685.18c0 12.73 9.09 23.64 21.61 25.93l4.74 0.42h632.47c12.73 0 23.64-9.09 25.93-21.61l0.42-4.74V169.41c0-12.73-9.09-23.64-21.61-25.93l-4.73-0.42z m0-79.06c58.22 0 105.41 47.19 105.41 105.41v685.18c0 58.22-47.19 105.41-105.41 105.41H195.76c-58.22 0-105.41-47.19-105.41-105.41V169.41C90.35 111.19 137.55 64 195.76 64h632.48z" fill="#00C050" p-id="1308"></path><path d="M343.35 542.32h120.38c24.08 0 36.11 12.04 36.11 36.11 0 24.08-12.04 36.12-36.11 36.12H343.35c-24.08 0-36.11-12.04-36.11-36.12 0-24.07 12.03-36.11 36.11-36.11zM324.85 701.76h374.27c28.79 0 43.19 12.04 43.19 36.11 0 24.08-14.39 36.12-43.19 36.12H324.85c-28.79 0-43.18-12.04-43.18-36.12-0.01-24.07 14.39-36.11 43.18-36.11z" fill="#333333" p-id="1309"></path><path d="M138.5 329.73h746.99v72.23H138.5z" fill="#00C050" p-id="1310"></path></svg>