<?xml version="1.0" standalone="no"?><!DOCTYPE svg PUBLIC "-//W3C//DTD SVG 1.1//EN" "http://www.w3.org/Graphics/SVG/1.1/DTD/svg11.dtd"><svg t="1765848590926" class="icon" viewBox="0 0 1024 1024" version="1.1" xmlns="http://www.w3.org/2000/svg" p-id="1998" xmlns:xlink="http://www.w3.org/1999/xlink" width="300" height="300"><path d="M263.2 255.07a41.108 41.108 0 0 1 29.17-14.55 41.168 41.168 0 0 1 30.6 11.23c17.68 17.5 19.04 45.62 3.14 64.75a41.155 41.155 0 0 1-29.57 15.15 41.131 41.131 0 0 1-31.12-11.64 47.065 47.065 0 0 1-14.2-31.73 47.557 47.557 0 0 1 11.07-33.02l0.91-0.19z m-33.76 108.28c28.59 28.16 71.99 34.85 107.73 16.6 36.36-19.6 57.98-58.58 55.34-99.8-1.64-40.89-27.14-77.01-65.12-92.24-37.41-14.03-79.6-2.85-105.15 27.86a108.45 108.45 0 0 0-25.27 75.45 106.976 106.976 0 0 0 32.47 72.13z" fill="#00C050" p-id="1999"></path><path d="M875.38 391.19l-27.05-27.62a27.607 27.607 0 0 0-39.92 1.12c-11.85 12.82-11.36 32.75 1.12 44.96l27.24 26.68c51.49 49.44 90.86 95.71 31.72 160.27L647.03 862.1a94.635 94.635 0 0 1-74.63 32.84 131.701 131.701 0 0 1-88.81-38.81L357.63 723.48a27.607 27.607 0 0 0-39.92 1.12c-11.73 12.8-11.23 32.58 1.12 44.78l125.94 133.59a186.553 186.553 0 0 0 125.56 55.97h2.8c44.97 0.22 87.69-19.7 116.42-54.29l212.51-253.18c98.51-105.04 59.14-169.04-26.68-261.21v0.93zM210.05 652.4c12.16-12.52 12.16-32.44 0-44.96l-45.15-48.32a69.4 69.4 0 0 1-21.08-41.98l-20.71-360.09a29.648 29.648 0 0 1 3.92-23.13 27.609 27.609 0 0 1 23.51-7.28l346.66 4.85c15.51 0.95 30.13 7.59 41.05 18.66l133.96 130.6c5.39 5.29 12.7 8.13 20.24 7.89 7.54-0.25 14.65-3.57 19.68-9.2 11.85-12.82 11.35-32.75-1.12-44.96L576.3 103.68a117.146 117.146 0 0 0-78.92-34.14l-355.61-4.48a74.633 74.633 0 0 0-58.4 27.43 87.17 87.17 0 0 0-18.66 65.86l21.83 366.43a132.316 132.316 0 0 0 39.74 81.35l43.47 48.13a27.607 27.607 0 0 0 39.92-1.12l0.38-0.74z" fill="#00C050" p-id="2000"></path><path d="M194.63 879.98c-29.53-4.63-52.1-28.79-54.66-58.56 0.09-12.6 4.83-24.72 13.29-34.05L763.92 188.7l3.74-3.37a118.238 118.238 0 0 1 50.73-25.82c7.61 0.5 13.43 6.98 13.1 14.59a117.807 117.807 0 0 1-26.58 50.33L226.83 865.77a40.064 40.064 0 0 1-31.82 14.22h-0.38z" fill="#333333" p-id="2001"></path></svg>