<?xml version="1.0" standalone="no"?><!DOCTYPE svg PUBLIC "-//W3C//DTD SVG 1.1//EN" "http://www.w3.org/Graphics/SVG/1.1/DTD/svg11.dtd"><svg t="1765848593346" class="icon" viewBox="0 0 1024 1024" version="1.1" xmlns="http://www.w3.org/2000/svg" p-id="2169" xmlns:xlink="http://www.w3.org/1999/xlink" width="300" height="300"><path d="M130.37 760.89v82.96c0 27.49 22.29 49.78 49.78 49.78h82.96c27.49 0 49.78-22.29 49.78-49.78v-82.96c0-27.49-22.29-49.78-49.78-49.78h-82.96c-27.49 0-49.78 22.29-49.78 49.78z m763.26 41.27v-41.27c0-27.49-22.29-49.78-49.78-49.78h-82.96c-27.49 0-49.78 22.29-49.78 49.78v82.96c0 27.49 22.29 49.78 49.78 49.78h82.96c27.49 0 49.78-22.29 49.78-49.78v-41.69zM960 781.5v62.35C960 908 908 960 843.85 960h-82.96c-64.15 0-116.15-52-116.15-116.15v-82.96c0-64.15 52-116.15 116.15-116.15h82.96c17.84 0 34.68 4.02 49.78 11.2V512c0-210.77-170.86-381.63-381.63-381.63-210.77 0-381.63 170.86-381.63 381.63v143.94a115.675 115.675 0 0 1 49.78-11.2h82.96c64.15 0 116.15 52 116.15 116.15v82.96c0 64.15-52 116.15-116.15 116.15h-82.96C116 960 64 908 64 843.85V512C64 264.56 264.56 64 512 64s448 200.56 448 448v269.5z" fill="#00C050" p-id="2170"></path><path d="M167.38 822.16V787.7c0-9.52 3.36-17.64 10.09-24.37s14.85-10.09 24.37-10.09h34.46c9.52 0 17.64 3.36 24.37 10.09s10.09 14.85 10.09 24.37v34.46c0 9.52-3.37 17.64-10.09 24.37-6.73 6.73-14.85 10.09-24.37 10.1h-34.46c-9.52 0-17.64-3.37-24.37-10.1-6.73-6.73-10.09-14.86-10.09-24.37zM753.23 822.16V787.7c0-9.52 3.36-17.64 10.09-24.37s14.85-10.09 24.37-10.09h34.46c9.52 0 17.64 3.36 24.37 10.09s10.09 14.85 10.09 24.37v34.46c0 9.52-3.37 17.64-10.09 24.37-6.73 6.73-14.85 10.09-24.37 10.1h-34.46c-9.52 0-17.64-3.37-24.37-10.1-6.73-6.73-10.09-14.86-10.09-24.37z" fill="#333333" p-id="2171"></path></svg>