<?xml version="1.0" standalone="no"?><!DOCTYPE svg PUBLIC "-//W3C//DTD SVG 1.1//EN" "http://www.w3.org/Graphics/SVG/1.1/DTD/svg11.dtd"><svg t="1765848628155" class="icon" viewBox="0 0 1024 1024" version="1.1" xmlns="http://www.w3.org/2000/svg" p-id="5071" xmlns:xlink="http://www.w3.org/1999/xlink" width="300" height="300"><path d="M652.08 239.38c-0.89 1.19-2.59 1.99-3.08 2.09h-22.31c-63.64-0.1-239.01-0.3-250.76 0-0.8 0-2.69-0.8-3.79-2.19-0.5-0.69-0.8-1.29-0.4-2.69l1.99-7.97c3.78-15.14 7.06-28.48 8.66-35.36 1.59-3.48 8.57-8.86 11.55-8.96h24.3l13.94-0.1c18.12 0 32.57-11.06 36.75-27.99l1.19-4.68c2.49-9.96 7.27-29.18 9.26-36.55 1-2.19 6.97-8.06 14.34-8.06h35.95c7.66 0 13.84 5.68 14.64 7.37 2.59 9.96 9.07 34.06 11.16 42.32 4.29 16.24 18.72 27.69 35.25 27.69h33.76c13.74 0 17.03 7.97 17.03 7.97l10.76 44.12c0.41 2.09 0.01 2.69-0.19 2.99z m41.74-13.15l-10.76-44.22c-3.98-16.33-22.81-40.63-58.96-40.63h-28.28c-2.69-10.46-7.87-29.68-10.16-38.24-4.88-18.72-27.68-39.04-55.77-39.14h-36.15c-27.49 0-50.09 20.12-55.37 38.84-2.19 8.17-7.07 27.99-9.66 38.34v0.2h-34.76c-24.2 0-48.3 21.81-52.78 40.63-1.89 7.97-5.18 21.01-8.96 36.15l-1.99 7.97c-3.59 14.14-0.6 28.19 8.17 39.44 8.96 11.55 23.4 18.63 37.55 18.63l1.09-0.11c11.75-0.3 186.43-0.09 249.67 0H649c13.64 0 27.68-6.97 36.55-18.22 8.87-11.15 11.75-25.3 8.27-39.64zM360.12 727.51H663.9c23.37 0 35.05 11.59 35.05 34.76 0 23.18-11.69 34.77-35.05 34.77H360.12c-23.37 0-35.05-11.59-35.05-34.77-0.01-23.18 11.68-34.76 35.05-34.76z" fill="#333333" p-id="5072"></path><path d="M791.27 168.31h-68.84v69.86h68.84l4.19 0.37c11.05 2.03 19.09 11.67 19.08 22.92v140.12H209.46V261.45l0.37-4.19c2.03-11.06 11.67-19.1 22.91-19.09h71.79v-69.86h-71.79c-51.41 0-93.09 41.7-93.09 93.14v605.41c0 51.44 41.67 93.14 93.09 93.14h558.53c51.41 0 93.09-41.7 93.09-93.14V261.45c-0.01-51.44-41.68-93.14-93.09-93.14z m22.9 702.74c-2.02 11.06-11.66 19.1-22.9 19.09H232.73l-4.19-0.37c-11.06-2.02-19.09-11.67-19.08-22.91V471.11h605.08v395.74l-0.37 4.2z" fill="#00C050" p-id="5073"></path><path d="M371.88 592.77h107.79c21.56 0 32.34 10.78 32.34 32.34 0 21.56-10.78 32.34-32.34 32.34H371.88c-21.56 0-32.34-10.78-32.34-32.34 0-21.56 10.78-32.34 32.34-32.34z" fill="#333333" p-id="5074"></path></svg>