<?xml version="1.0" standalone="no"?><!DOCTYPE svg PUBLIC "-//W3C//DTD SVG 1.1//EN" "http://www.w3.org/Graphics/SVG/1.1/DTD/svg11.dtd"><svg t="1765848595756" class="icon" viewBox="0 0 1024 1024" version="1.1" xmlns="http://www.w3.org/2000/svg" p-id="2339" xmlns:xlink="http://www.w3.org/1999/xlink" width="300" height="300"><path d="M804.22 829.61H634.13V565.18c0-15.54-12.51-28.14-27.96-28.14H417.85c-15.45 0-27.96 12.6-27.96 28.14V829.6H219.8V426.27l292.21-225.12 292.21 225.12v403.34z m144.27-363.23L528.45 143.54a27.754 27.754 0 0 0-32.96 0L75.53 466.38c-12.51 9.11-15.28 26.71-6.16 39.31 9.11 12.6 26.53 15.28 39.13 6.25l55.3-42.61v388.42c0 15.54 12.51 28.14 27.96 28.14h226.1c15.45 0 27.96-12.6 27.96-28.14V593.33h132.3v264.42c0 15.54 12.51 28.14 27.96 28.14h226.1c15.45 0 27.96-12.6 27.96-28.14V469.42l55.3 42.61c5 3.66 10.72 5.36 16.44 5.36 8.66 0 17.24-4.02 22.69-11.61 9.19-12.6 6.42-30.19-6.08-39.4z" fill="#333333" p-id="2340"></path><path d="M741 480.79H282.97c-21.17 0-30.69-26.68-14.28-40.09l213.23-173.39c17.16-13.91 41.59-13.91 58.76-0.13l214.6 173.52c16.54 13.28 7.02 40.09-14.28 40.09z" fill="#03BD61" p-id="2341"></path></svg>