<?xml version="1.0" standalone="no"?><!DOCTYPE svg PUBLIC "-//W3C//DTD SVG 1.1//EN" "http://www.w3.org/Graphics/SVG/1.1/DTD/svg11.dtd"><svg t="1765769679303" class="icon" viewBox="0 0 1024 1024" version="1.1" xmlns="http://www.w3.org/2000/svg" p-id="13923" xmlns:xlink="http://www.w3.org/1999/xlink" width="300" height="300"><path d="M990.72 403.456c-28.16-33.792-72.192-50.176-120.832-44.544V207.36c0-68.608-55.808-124.416-124.416-124.416h-501.76c-68.608 0-124.416 55.808-124.416 124.416v159.744c-36.864 4.096-67.584 19.456-88.064 45.056-26.112 32.768-32.256 77.312-17.408 122.88 2.048 6.144 16.384 24.576 41.472 56.32 5.12 6.144 9.216 11.264 10.752 13.312 14.848 19.968 25.6 36.864 32.768 52.736 2.56 5.632 5.12 11.264 7.168 16.896 12.288 29.184 22.016 62.464 29.696 97.792 2.56 11.264 4.608 22.016 6.144 32.256 0.512 3.584 1.024 6.656 1.024 8.704V911.36c0 15.872 12.8 29.184 29.184 29.184 15.872 0 29.184-12.8 29.184-29.184v-66.56H824.32v66.56c0 15.872 12.8 29.184 29.184 29.184s29.184-12.8 29.184-29.184v-95.232-8.704-2.56c0-2.048 0.512-5.12 1.024-8.704 1.536-10.24 3.584-20.992 6.144-32.256 7.68-35.328 17.92-68.608 29.696-97.792 2.56-5.632 5.12-11.776 7.168-16.896 7.168-15.36 17.92-32.768 32.768-52.736 1.536-2.048 5.632-7.168 10.752-13.312 25.6-31.744 39.936-50.176 41.472-56.32 14.848-44.544 7.168-89.6-20.992-123.392z m-158.208 348.16c-2.56 12.288-5.12 24.064-6.656 35.328v0.512H197.632c-1.536-8.704-3.584-17.92-5.632-27.136-8.704-38.912-19.456-74.752-32.768-107.52-2.56-6.656-5.632-12.8-8.192-19.456-8.704-19.456-21.504-39.936-38.4-62.976-9.728-12.8-15.872-20.992-32.768-40.96-2.048-2.56-4.096-5.12-6.144-7.168-2.56-3.072-4.096-5.12-5.632-6.656-8.704-27.136-3.072-54.272 15.36-71.68 21.504-20.992 57.344-26.112 95.232-12.8l112.64 142.336c3.072 4.096 8.704 6.656 14.848 6.656h2.048c6.656-0.512 13.312-3.072 18.944-7.68s10.24-10.24 11.776-16.384c2.048-6.656 1.536-13.312-2.56-17.92l-11.264-13.824L220.16 390.144c-1.024-1.024-2.048-2.56-3.072-3.072-2.048-1.536-3.584-2.56-5.12-3.584-1.024-0.512-2.048-1.024-3.072-2.048-0.512-0.512-1.024-0.512-2.048-1.024l-7.68-4.096c-1.024-0.512-2.56-1.024-3.584-1.536-7.68-2.56-10.752-3.584-18.432-4.608V207.36c0-36.864 29.696-66.56 66.56-66.56h501.76c36.864 0 66.56 29.696 66.56 66.56v167.936c-2.048 1.536-4.096 3.072-5.632 5.12l-170.496 216.064H363.008c-15.872 0-29.184 12.8-29.184 29.184s12.8 29.184 29.184 29.184h286.72c8.704 0 17.408-4.096 22.528-11.264l174.08-220.672 3.584-1.024c36.864-11.776 70.656-6.656 91.648 13.824 18.432 17.92 24.064 44.544 15.36 71.68-1.536 1.536-3.072 3.584-5.632 6.656-1.536 2.048-3.584 4.608-6.144 7.168-16.896 20.48-23.04 28.16-32.768 40.96-16.896 23.04-29.696 43.52-38.4 62.976-3.072 6.144-5.632 12.8-8.192 19.456-13.312 32.256-24.576 68.608-33.28 107.008z m-2.56 40.96z" p-id="13924" fill="#090909"></path></svg>