<?xml version="1.0" standalone="no"?><!DOCTYPE svg PUBLIC "-//W3C//DTD SVG 1.1//EN" "http://www.w3.org/Graphics/SVG/1.1/DTD/svg11.dtd"><svg t="1765769590112" class="icon" viewBox="0 0 1024 1024" version="1.1" xmlns="http://www.w3.org/2000/svg" p-id="4739" xmlns:xlink="http://www.w3.org/1999/xlink" width="300" height="300"><path d="M734.636636 757.661026H289.364387V143.508461h445.272249v614.152565zM335.427492 711.599967h353.146039V189.56952H335.427492V711.599967z m217.298048 121.900328c0 20.809955-16.877389 37.663808-37.680181 37.663808-20.804838 0-37.681204-16.853853-37.681204-37.663808 0-20.810978 16.876366-37.69553 37.681204-37.695531 20.802792-0.001023 37.680181 16.883529 37.680181 37.695531m180.372044 123.758651H290.90037c-43.177382 0-78.30953-35.147498-78.309531-78.313623V145.045467c0-43.174312 35.132148-78.304414 78.309531-78.304413h442.197214c43.177382 0 78.310553 35.131125 78.310553 78.304413v733.899856c-0.001023 43.166125-35.133172 78.313623-78.310553 78.313623zM290.90037 112.802112c-17.784038 0-32.245402 14.46034-32.245402 32.243355v733.899856c0 17.781992 14.462387 32.251541 32.245402 32.251542h442.197214c17.784038 0 32.247448-14.467503 32.247448-32.251542V145.045467c0-17.781992-14.462387-32.243355-32.247448-32.243355H290.90037z" p-id="4740"></path></svg>