<?xml version="1.0" standalone="no"?><!DOCTYPE svg PUBLIC "-//W3C//DTD SVG 1.1//EN" "http://www.w3.org/Graphics/SVG/1.1/DTD/svg11.dtd"><svg t="1765769665762" class="icon" viewBox="0 0 1024 1024" version="1.1" xmlns="http://www.w3.org/2000/svg" p-id="12732" xmlns:xlink="http://www.w3.org/1999/xlink" width="300" height="300"><path d="M894.72 538.717091h-125.207273a17.454545 17.454545 0 1 1 0-34.909091h125.207273a17.454545 17.454545 0 0 1 0 34.909091zM894.72 687.197091h-125.207273a17.454545 17.454545 0 0 1 0-34.909091h125.207273a17.454545 17.454545 0 0 1 0 34.909091zM894.72 835.653818h-125.207273a17.454545 17.454545 0 0 1 0-34.909091h125.207273a17.454545 17.454545 0 0 1 0 34.909091z" fill="#090909" p-id="12733"></path><path d="M878.242909 986.042182H587.450182a55.04 55.04 0 0 1-54.970182-54.970182v-17.477818a17.454545 17.454545 0 0 1 34.909091 0v17.477818c0 11.077818 9.006545 20.061091 20.061091 20.061091h290.792727a20.084364 20.084364 0 0 0 20.037818-20.061091V397.707636a20.084364 20.084364 0 0 0-20.037818-20.061091H587.450182a20.084364 20.084364 0 0 0-20.061091 20.061091v14.568728a17.454545 17.454545 0 0 1-34.909091 0v-14.568728a55.04 55.04 0 0 1 54.970182-54.970181h290.792727a55.016727 55.016727 0 0 1 54.946909 54.970181v533.364364a55.016727 55.016727 0 0 1-54.946909 54.970182z" fill="#090909" p-id="12734"></path><path d="M549.934545 680.936727a17.454545 17.454545 0 0 1-17.454545-17.454545V555.287273a17.454545 17.454545 0 0 1 34.909091 0v108.171636a17.454545 17.454545 0 0 1-17.454546 17.477818z" fill="#090909" p-id="12735"></path><path d="M931.956364 288.791273c7.051636 0 12.8 5.748364 12.8 12.8v28.346182c0 7.051636-5.748364 12.8-12.8 12.8H533.736727a12.823273 12.823273 0 0 1-12.8-12.8V301.614545c0-7.051636 5.748364-12.8 12.8-12.8h398.219637m0-34.932363H533.736727a47.709091 47.709091 0 0 0-47.709091 47.709091v28.346182a47.709091 47.709091 0 0 0 47.709091 47.70909h398.219637a47.709091 47.709091 0 0 0 47.709091-47.70909V301.614545a47.709091 47.709091 0 0 0-47.709091-47.732363z" fill="#090909" p-id="12736"></path><path d="M869.143273 264.192c-6.632727-30.394182-30.859636-56.785455-66.490182-72.424727-25.041455-10.984727-41.216-35.025455-41.216-61.230546V100.352c0-14.010182-11.147636-26.018909-25.437091-27.345455a31.185455 31.185455 0 0 0-23.714909 7.563637 23.389091 23.389091 0 0 0-8.005818 17.361454v32.605091c0 26.205091-16.174545 50.245818-41.216 61.230546-35.653818 15.662545-59.880727 42.053818-66.513455 72.424727l-34.094545-7.424c9.029818-41.425455 40.564364-76.753455 86.574545-96.954182 12.357818-5.422545 20.340364-16.919273 20.340364-29.277091V97.931636c0-16.430545 6.888727-31.744 19.386182-43.147636a65.629091 65.629091 0 0 1 50.455272-16.523636c32.023273 2.955636 57.111273 30.231273 57.111273 62.091636v30.161455c0 12.357818 7.982545 23.854545 20.340364 29.27709 46.010182 20.200727 77.544727 55.528727 86.574545 96.977455l-34.094545 7.424z" fill="#090909" p-id="12737"></path><path d="M227.328 833.815273a17.454545 17.454545 0 0 1-17.314909-15.476364c-0.046545-0.465455-5.492364-45.079273-35.002182-81.477818-9.309091-11.496727-15.499636-10.752-33.629091-6.609455-19.595636 4.445091-46.429091 10.542545-75.962182-14.987636-14.103273-12.171636-21.387636-27.624727-21.061818-44.637091 0.768-40.145455 43.589818-75.543273 48.477091-79.453091a17.454545 17.454545 0 0 1 21.829818 27.252364c-9.076364 7.284364-35.048727 32.698182-35.397818 52.875636-0.069818 4.142545 0.791273 10.449455 8.983273 17.547637 16.197818 13.986909 28.485818 11.194182 45.405091 7.330909 18.990545-4.328727 45.009455-10.24 68.468363 18.664727 36.189091 44.613818 42.333091 97.396364 42.589091 99.607273a17.431273 17.431273 0 0 1-17.384727 19.362909z" fill="#090909" p-id="12738"></path><path d="M241.314909 843.845818a17.035636 17.035636 0 1 1 0.023273 34.094546 17.035636 17.035636 0 0 1-0.023273-34.094546m0-34.909091a51.898182 51.898182 0 1 0 36.724364 88.669091 51.898182 51.898182 0 0 0-36.724364-88.669091zM565.131636 496.081455a18.176 18.176 0 0 1-1.931636-0.093091c-2.234182-0.256-55.016727-6.4-99.630545-42.589091-28.881455-23.435636-22.970182-49.454545-18.664728-68.468364 3.863273-16.965818 6.632727-29.207273-7.354182-45.405091-7.074909-8.215273-13.195636-9.076364-17.570909-8.983273-20.340364 0.395636-45.591273 26.321455-52.852363 35.374546a17.431273 17.431273 0 1 1-27.252364-21.806546c3.886545-4.887273 39.284364-47.709091 79.429818-48.47709 17.314909-0.046545 32.465455 6.958545 44.637091 21.061818 25.530182 29.556364 19.409455 56.366545 14.987637 75.962182-4.119273 18.129455-4.864 24.296727 6.609454 33.62909 36.724364 29.789091 80.989091 34.955636 81.454546 35.002182a17.454545 17.454545 0 0 1-1.861819 34.792728z" fill="#090909" p-id="12739"></path><path d="M609.605818 475.554909a17.035636 17.035636 0 1 1 0.023273 34.094546 17.035636 17.035636 0 0 1-0.023273-34.094546m0-34.909091a51.898182 51.898182 0 1 0 36.724364 88.669091 51.898182 51.898182 0 0 0-36.724364-88.669091z" fill="#090909" p-id="12740"></path><path d="M267.589818 362.682182a154.298182 154.298182 0 0 1 109.824 45.498182 155.461818 155.461818 0 0 1 0 219.624727c-29.323636 29.323636-68.328727 45.498182-109.824 45.498182s-80.477091-16.174545-109.800727-45.498182a155.461818 155.461818 0 0 1 0-219.624727 154.205091 154.205091 0 0 1 109.800727-45.498182m0-34.909091a189.579636 189.579636 0 0 0-134.493091 55.714909 190.184727 190.184727 0 0 0 134.493091 324.701091 190.184727 190.184727 0 0 0 134.493091-324.701091 189.556364 189.556364 0 0 0-134.493091-55.714909z" fill="#090909" p-id="12741"></path><path d="M267.589818 410.228364c28.788364 0 55.831273 11.217455 76.194909 31.557818a107.892364 107.892364 0 0 1 0 152.389818c-20.340364 20.340364-47.406545 31.557818-76.194909 31.557818s-55.831273-11.217455-76.194909-31.557818a107.892364 107.892364 0 0 1 0-152.389818 107.147636 107.147636 0 0 1 76.194909-31.557818m0-34.909091a142.661818 142.661818 0 1 0 0 285.300363 142.661818 142.661818 0 0 0 0-285.300363z" fill="#090909" p-id="12742"></path><path d="M418.909091 658.501818c1.024 0 1.861818 0.186182 2.257454 0.512l138.309819 110.778182c14.173091 11.357091 23.505455 27.648 24.32 42.496 0.442182 7.912727-1.652364 14.219636-6.190546 18.781091-4.212364 4.212364-9.704727 6.260364-16.802909 6.260364-15.173818 0-32.628364-9.565091-44.474182-24.366546l-110.778182-138.309818c-1.070545-1.349818-0.721455-7.191273 3.863273-11.776a14.103273 14.103273 0 0 1 9.495273-4.375273m-0.023273-34.909091c-12.125091 0-24.715636 5.12-34.187636 14.592-16.290909 16.290909-19.688727 41.728-6.423273 58.274909l110.778182 138.309819c19.013818 23.761455 46.522182 37.469091 71.726545 37.46909 15.546182 0 30.208-5.213091 41.472-16.47709 29.556364-29.556364 17.408-82.455273-20.968727-113.221819l-138.309818-110.778181a38.144 38.144 0 0 0-24.087273-8.168728z" fill="#090909" p-id="12743"></path></svg>