<?xml version="1.0" standalone="no"?><!DOCTYPE svg PUBLIC "-//W3C//DTD SVG 1.1//EN" "http://www.w3.org/Graphics/SVG/1.1/DTD/svg11.dtd"><svg t="1765769602568" class="icon" viewBox="0 0 1024 1024" version="1.1" xmlns="http://www.w3.org/2000/svg" p-id="5926" xmlns:xlink="http://www.w3.org/1999/xlink" width="300" height="300"><path d="M884.257 128.288H139.742c-41.053 0-74.452 33.398-74.452 74.451v458.164c0 41.053 33.399 74.452 74.452 74.452h257.716v103.087h-163.22v57.27H789.76v-57.27h-163.22V735.355h257.716c41.053 0 74.452-33.399 74.452-74.452V202.74c0-41.053-33.399-74.451-74.452-74.451z m-744.515 57.27h744.515c9.45 0 17.182 7.731 17.182 17.181V569.27H122.56V202.74c0-9.45 7.732-17.182 17.182-17.182zM569.27 838.442H454.73V735.355h114.54v103.087z m314.987-160.358H139.742c-9.45 0-17.182-7.731-17.182-17.182V626.54H901.44v34.362c0 9.45-7.731 17.182-17.182 17.182z" fill="#090909" p-id="5927"></path></svg>