<?xml version="1.0" standalone="no"?><!DOCTYPE svg PUBLIC "-//W3C//DTD SVG 1.1//EN" "http://www.w3.org/Graphics/SVG/1.1/DTD/svg11.dtd"><svg t="1765769637419" class="icon" viewBox="0 0 1024 1024" version="1.1" xmlns="http://www.w3.org/2000/svg" p-id="9442" xmlns:xlink="http://www.w3.org/1999/xlink" width="300" height="300"><path d="M350.83 354.76h-0.31v-33C350.52 208.33 305.86 106 234 54.58c-10.94-7.83-21-13.06-30.75-16-19.12-5.73-33.32-1.28-41.83 3.44-21.58 11.98-36.37 38.41-46.55 83.25-6.62 29.17-11.46 67-14.4 112.37s-3.4 88.78-3.29 117.12a95.1 95.1 0 0 0-94.68 95v443.33a95.1 95.1 0 0 0 95 95h253.33a95.11 95.11 0 0 0 95-95V449.76a95.11 95.11 0 0 0-95-95zM163.32 247.32c6.11-101.38 20-135.49 26.26-146a69.16 69.16 0 0 1 7.56 4.81c54.7 39.09 90.05 123.75 90.05 215.66v33H160.54c-0.11-26.25 0.29-66.17 2.78-107.47zM382.5 893.09a31.71 31.71 0 0 1-31.67 31.67H97.5a31.71 31.71 0 0 1-31.67-31.67V449.76a31.71 31.71 0 0 1 31.67-31.67h253.33a31.71 31.71 0 0 1 31.67 31.67z m512.73-453.77a95.26 95.26 0 0 0-8-29 95 95 0 0 0 49.51-49.42l84.73-195.29-14.25-15.18C975 116 933.18 87.66 886.43 68.34c-48.6-20.07-100.95-30.25-155.6-30.25s-107 10.18-155.59 30.25C528.48 87.66 486.7 116 454.41 150.43l-14.25 15.18 84.74 195.31a95 95 0 0 0 49.5 49.4 94.74 94.74 0 0 0-7.93 29l-49.34 443.35a95 95 0 0 0 94.43 105.42h238.51a95 95 0 0 0 94.43-105.46zM660.9 418.09h139.9a31.63 31.63 0 0 1 31.48 28.2l7.43 66.8H622l7.45-66.88a31.55 31.55 0 0 1 31.45-28.12zM515.2 179.45C539 158 567.73 140 599.42 126.88c40.88-16.89 85.1-25.45 131.41-25.45s90.53 8.56 131.42 25.45c31.68 13.12 60.44 31.12 84.21 52.57l-67.78 156.23a31.67 31.67 0 0 1-29 19.08h-22.87l29.74-119a31.67 31.67 0 0 0-61.44-15.36l-31.67 126.68a31.71 31.71 0 0 0-0.94 7.68h-63.33a31.73 31.73 0 0 0-0.95-7.68l-31.67-126.67a31.67 31.67 0 1 0-61.44 15.36l29.75 119H612a31.67 31.67 0 0 1-29-19.06zM873.7 914.2a31.34 31.34 0 0 1-23.63 10.56H611.56a31.73 31.73 0 0 1-31.48-35.13l34.86-313.2h231.81l34.81 313.2a31.25 31.25 0 0 1-7.86 24.57zM192.5 513.09v316.67a31.67 31.67 0 1 1-63.33 0V513.09a31.67 31.67 0 0 1 63.33 0z" fill="#090909" p-id="9443"></path></svg>