<?xml version="1.0" standalone="no"?><!DOCTYPE svg PUBLIC "-//W3C//DTD SVG 1.1//EN" "http://www.w3.org/Graphics/SVG/1.1/DTD/svg11.dtd"><svg t="1765769645118" class="icon" viewBox="0 0 1024 1024" version="1.1" xmlns="http://www.w3.org/2000/svg" p-id="10537" xmlns:xlink="http://www.w3.org/1999/xlink" width="300" height="300"><path d="M920.240845 344.751858c-22.165836-54.660924-54.722322-103.69571-96.760764-145.734152-42.038442-42.038442-91.071182-74.594929-145.734152-96.760764-4.206812-1.704828-14.522762-5.496178-19.003819-7.14984-3.764744-1.602498-7.907087-2.491751-12.259208-2.491751-17.304108 0-31.332612 14.027481-31.332612 31.332612 0 14.652721 10.07138 26.920116 23.661909 30.346145l0 0.066515c34.152844 12.101619 66.906829 29.240975 97.077989 51.439556 4.575202 25.359574-2.373047 59.259662-20.476357 99.157347-17.304108 38.141692-44.438095 80.44824-79.139431 123.720789-13.976316-13.113669-28.647457-26.019607-43.991933-38.697347-24.235984-20.016893-49.098231-38.644135-74.232678-56.07411 2.472308-4.468778 4.798283-8.981559 6.947226-13.533224 18.98233-40.199561 25.200962-82.405825 17.98256-122.0528-4.338818-23.829731-13.399171-45.7643-26.725688-65.1273l-0.151449-0.031722 0-0.195451c-0.080841-0.116657-0.157589-0.236384-0.23843-0.355087 0.035816 0-4.03285-5.919826-6.658653-8.871041-2.287089-2.574638-17.012466-22.77061-16.969487-22.77061 0 0-6.164397-8.241708-18.006096-18.414395-7.404644-6.359848-10.347672-8.179286-14.116509-9.543354-39.046295 4.581342-77.171614 14.361079-113.858164 29.236881-54.660924 22.165836-103.69571 54.722322-145.734152 96.760764s-74.594929 91.071182-96.760764 145.734152C82.356706 397.527852 71.502497 453.290877 71.502497 510.488577s10.852162 112.960725 32.256658 165.743882c22.165836 54.660924 54.722322 103.693664 96.762811 145.734152 42.038442 42.038442 91.071182 74.594929 145.734152 96.762811 52.782134 21.402449 108.545158 32.256658 165.743882 32.256658 57.1977-0.002047 112.960725-10.854209 165.743882-32.256658 54.660924-22.165836 103.69571-54.722322 145.734152-96.762811 42.038442-42.038442 74.596975-91.071182 96.762811-145.734152 21.402449-52.782134 32.256658-108.545158 32.256658-165.743882C952.497503 453.29497 941.643294 397.531945 920.240845 344.751858zM447.103968 138.161686c45.949518 36.487006 57.286728 98.529037 28.734438 158.99927-1.044796 2.211365-2.153036 4.40738-3.294023 6.596232-61.965284-39.21207-124.270305-71.730695-181.746344-99.912547C338.186326 169.622212 391.776871 147.726529 447.103968 138.161686zM244.662279 243.152902c0.496304-0.496304 0.997724-0.985444 1.494027-1.476631 1.670036 1.393743 3.532453 2.612501 5.579065 3.605108 61.736063 29.92659 126.563534 63.800072 188.906417 102.927207-56.94392 60.194964-158.901033 97.322559-293.978475 65.287959C163.133428 351.046215 195.795315 292.01782 244.662279 243.152902zM136.600121 466.962248c160.712285 37.316907 282.672988-11.95017 350.029048-88.559988 40.47483 27.856441 79.233576 58.187237 114.6369 91.385337C503.694847 578.044182 363.627764 686.045965 215.1972 744.724389 151.659095 664.335501 125.461433 563.889811 136.600121 466.962248zM675.291017 647.725194c-29.111015 58.68661-41.707914 131.144876-37.439704 215.359906 0.063445 1.272993 0.24457 2.509147 0.474814 3.723811-129.038912 45.51973-278.030247 19.021216-383.839085-79.499635 99.67207-42.49586 202.869431-108.885919 294.9148-190.201923 32.487925-28.698622 62.765509-58.591443 90.156346-88.774883 25.41074 27.547403 48.415686 56.914244 68.235081 88.289835C696.312796 610.833983 685.222203 627.700115 675.291017 647.725194zM779.343861 777.834484c-26.617218 26.617218-56.248072 48.425919-87.802742 65.428152-1.436722-67.413366 9.450233-125.006062 32.454156-171.381275 4.110621-8.287757 8.447393-15.865339 12.920264-22.816658 17.895579 37.179784 31.383778 76.933183 39.399335 119.513978 0.608867 3.238764 1.783623 6.223748 3.381004 8.896624C779.576151 777.596054 779.461541 777.716804 779.343861 777.834484zM822.552965 726.195384c-10.617825-41.459251-26.468838-81.920778-47.412846-121.014144 10.588149-8.858762 20.75572-15.20633 29.53671-19.710924 32.166607-16.505929 62.410422-16.98893 79.456656-8.953929C874.844935 629.316939 854.321506 680.505785 822.552965 726.195384zM889.751437 520.976442c-9.956769-2.612501-20.732184-3.944845-32.134885-3.913123-25.451672 0.065492-52.341089 6.996344-77.758991 20.040429-9.911744 5.083785-21.142529 11.914354-32.864502 20.972661-1.965771-2.972705-3.950985-5.939269-5.977132-8.894577-19.133779-27.888164-41.24231-55.246255-66.142419-81.887009 39.127136-48.104601 70.113871-95.928816 90.051969-139.875724 12.088316-26.646893 20.072151-51.471278 23.957645-74.371848C858.768795 328.138482 892.391567 424.966785 889.751437 520.976442z" fill="#090909" p-id="10538"></path></svg>