<?xml version="1.0" standalone="no"?><!DOCTYPE svg PUBLIC "-//W3C//DTD SVG 1.1//EN" "http://www.w3.org/Graphics/SVG/1.1/DTD/svg11.dtd"><svg t="1765769653281" class="icon" viewBox="0 0 1024 1024" version="1.1" xmlns="http://www.w3.org/2000/svg" p-id="11637" xmlns:xlink="http://www.w3.org/1999/xlink" width="300" height="300"><path d="M940.714939 518.314151H510.859863a17.451083 17.451083 0 0 1 0-34.902166h429.878344a17.451083 17.451083 0 1 1-0.023268 34.902166zM716.340548 331.959853a17.451083 17.451083 0 0 1-17.451083-17.451083v-162.644094L845.199345 5.554796a17.451083 17.451083 0 1 1 24.687465 24.687465L733.791631 166.337441v148.194597a17.451083 17.451083 0 0 1-17.451083 17.427815z" fill="#090909" p-id="11638"></path><path d="M981.34106 331.890048v37.461658h-0.395558a34.902166 34.902166 0 0 0-34.739289 31.621363l-55.494444 586.798483a5.04918 5.04918 0 0 1-3.117927 1.093601H558.210468a5.118984 5.118984 0 0 1-3.117927-1.093601l-55.494444-586.798483a34.902166 34.902166 0 0 0-34.739289-31.621363h-20.08038v-37.461658h536.562632m8.632469-34.902166H436.145959c-14.519301 0-26.269697 11.750396-26.269697 26.269697v54.726596c0 14.519301 11.750396 26.269697 26.269697 26.269697h28.712849l55.610784 588.031693c1.652036 17.497619 18.544684 31.481754 37.740876 31.481754h329.406643c19.196191 0 36.08884-13.984135 37.740875-31.481754l55.610785-588.031693h9.028026c14.519301 0 26.269697-11.773664 26.269697-26.269697v-54.726596a26.292965 26.292965 0 0 0-26.292965-26.269697z" fill="#090909" p-id="11639"></path><path d="M438.333162 699.712342H25.207857a17.451083 17.451083 0 0 1 0-34.902166h413.125305a17.451083 17.451083 0 0 1 0 34.902166z" fill="#090909" p-id="11640"></path><path d="M440.520364 636.236936H31.141225a17.427815 17.427815 0 0 1-17.264938-14.961395c-0.465362-3.210999-10.819671-79.227917 36.461129-133.838173 30.132203-34.809094 75.970381-52.46959 136.234788-52.46959h216.719183a17.451083 17.451083 0 0 1 0 34.902166H186.572204c-49.677416 0-86.650444 13.588577-109.872018 40.416709-25.943943 29.969327-29.457428 69.757796-29.201479 91.048117h393.021657a17.451083 17.451083 0 0 1 0 34.902166zM479.913275 936.162882H230.362788c-187.56424 0-196.871484-187.820189-196.941288-189.728174a17.544155 17.544155 0 0 1 4.863035-12.774193 17.567424 17.567424 0 0 1 12.588048-5.328397H462.438924a17.451083 17.451083 0 0 1 0 34.902166H70.394528c6.957165 41.324165 36.461129 138.049701 159.96826 138.0497h249.573755a17.451083 17.451083 0 1 1-0.023268 34.878898z" fill="#090909" p-id="11641"></path></svg>